<svg version="1.1" id="Layer_1" xmlns="http://www.w3.org/2000/svg" xmlns:xlink="http://www.w3.org/1999/xlink" x="0px" y="0px"
	 width="20px" height="20px" viewBox="0 0 150 150" enable-background="new 0 0 150 150" xml:space="preserve">
<path fill="#838476" opacity="1.000000" stroke="none" 
	d="
M142.095581,151.000000 
	C94.751534,151.000000 47.920177,151.000000 1.044412,151.000000 
	C1.044412,101.031754 1.044412,51.063457 1.044412,1.047581 
	C50.966129,1.047581 100.932312,1.047581 150.949249,1.047581 
	C150.949249,50.964012 150.949249,100.928085 150.949249,151.000000 
	C148.203171,151.000000 145.405716,151.000000 142.095581,151.000000 
M122.660446,84.999535 
	C125.431770,84.999535 128.203094,84.999535 131.425507,84.999535 
	C131.425507,100.023750 131.517471,114.324409 131.251358,128.618408 
	C131.230011,129.765244 128.868683,131.567795 127.372910,131.838135 
	C124.511734,132.355209 121.490814,131.988388 118.377884,131.988388 
	C118.377884,134.912872 118.377884,137.276947 118.377884,139.999329 
	C124.055321,139.999329 129.375702,139.772415 134.666336,140.071472 
	C138.862854,140.308716 140.120453,138.762009 140.077866,134.633499 
	C139.894043,116.811073 140.006638,98.985672 139.981277,81.161385 
	C139.979477,79.891121 139.735474,78.621201 139.597473,77.287216 
	C132.345718,77.287216 125.426460,77.287216 117.941414,77.287216 
	C119.228554,80.201607 114.956802,84.987007 122.660446,84.999535 
M91.512527,115.498390 
	C91.512527,105.445236 91.512527,95.392082 91.512527,84.793396 
	C96.589523,84.793396 100.661705,84.793396 104.684860,84.793396 
	C104.684860,81.970619 104.684860,79.716263 104.684860,77.339470 
	C97.479919,77.339470 90.590958,77.339470 83.618454,77.339470 
	C83.618454,98.354828 83.618454,119.027397 83.618454,140.000046 
	C88.888626,140.000046 93.706238,140.005432 98.523827,139.998749 
	C105.344429,139.989288 105.696098,139.536423 104.318825,131.996124 
	C101.454880,131.996124 98.482895,131.833435 95.536934,132.040665 
	C92.429871,132.259232 91.396530,130.920853 91.495186,127.982460 
	C91.623604,124.158058 91.517502,120.325775 91.512527,115.498390 
z"/>
<path fill="#F8F6E7" opacity="1.000000" stroke="none" 
	d="
M122.191429,84.998505 
	C114.956802,84.987007 119.228554,80.201607 117.941414,77.287216 
	C125.426460,77.287216 132.345718,77.287216 139.597473,77.287216 
	C139.735474,78.621201 139.979477,79.891121 139.981277,81.161385 
	C140.006638,98.985672 139.894043,116.811073 140.077866,134.633499 
	C140.120453,138.762009 138.862854,140.308716 134.666336,140.071472 
	C129.375702,139.772415 124.055321,139.999329 118.377884,139.999329 
	C118.377884,137.276947 118.377884,134.912872 118.377884,131.988388 
	C121.490814,131.988388 124.511734,132.355209 127.372910,131.838135 
	C128.868683,131.567795 131.230011,129.765244 131.251358,128.618408 
	C131.517471,114.324409 131.425507,100.023750 131.425507,84.999535 
	C128.203094,84.999535 125.431770,84.999535 122.191429,84.998505 
z"/>
<path fill="#F8F6E7" opacity="1.000000" stroke="none" 
	d="
M91.512428,115.997635 
	C91.517502,120.325775 91.623604,124.158058 91.495186,127.982460 
	C91.396530,130.920853 92.429871,132.259232 95.536934,132.040665 
	C98.482895,131.833435 101.454880,131.996124 104.318825,131.996124 
	C105.696098,139.536423 105.344429,139.989288 98.523827,139.998749 
	C93.706238,140.005432 88.888626,140.000046 83.618454,140.000046 
	C83.618454,119.027397 83.618454,98.354828 83.618454,77.339470 
	C90.590958,77.339470 97.479919,77.339470 104.684860,77.339470 
	C104.684860,79.716263 104.684860,81.970619 104.684860,84.793396 
	C100.661705,84.793396 96.589523,84.793396 91.512527,84.793396 
	C91.512527,95.392082 91.512527,105.445236 91.512428,115.997635 
z"/>
</svg>